<?xml version="1.0" standalone="no"?>
<!DOCTYPE svg PUBLIC "-//W3C//DTD SVG 1.1//EN" "http://www.w3.org/Graphics/SVG/1.1/DTD/svg11.dtd" >
<svg xmlns="http://www.w3.org/2000/svg" xmlns:xlink="http://www.w3.org/1999/xlink" version="1.1">
<metadata></metadata>
<defs>
<font id="agendathinultracondensed" horiz-adv-x="493" >
<font-face units-per-em="2048" ascent="1638" descent="-410" />
<missing-glyph horiz-adv-x="212" />
<glyph unicode="&#xfb01;" horiz-adv-x="446" d="M23 887v41h69v37q0 191 41.5 271.5t128.5 80.5q45 0 72 -31l-4 -41q-8 12 -27 21.5t-39 9.5q-67 0 -97 -71.5t-30 -239.5v-37h232v-928h-45v887h-187v-887h-45v887h-69z" />
<glyph unicode="&#xfb02;" horiz-adv-x="466" d="M23 887v41h69v37q0 352 176 352q72 0 101 -29v-1106q0 -67 13.5 -103.5t45.5 -60.5l-29 -28q-75 47 -75 192v1082q-28 12 -56 12q-131 0 -131 -311v-37h96l-10 -41h-86v-887h-45v887h-69z" />
<glyph horiz-adv-x="0" />
<glyph horiz-adv-x="682" />
<glyph unicode=" "  horiz-adv-x="212" />
<glyph unicode="&#x09;" horiz-adv-x="212" />
<glyph unicode="&#xa0;" horiz-adv-x="212" />
<glyph unicode="!" horiz-adv-x="210" d="M63 84q0 25 14.5 60.5t26.5 35.5q16 0 28.5 -34t12.5 -62t-12.5 -61t-28.5 -33q-12 0 -26.5 34.5t-14.5 59.5zM82 1307h53l-6 -1053l-41 18z" />
<glyph unicode="&#x22;" horiz-adv-x="290" d="M33 1307h69l-18 -346h-37zM188 1307h68l-16 -346h-35z" />
<glyph unicode="#" horiz-adv-x="397" d="M18 461v41h72l27 303h-72v41h74l39 461h41l-39 -461h104l37 461h41l-37 -461h70v-41h-74l-25 -303h72v-41h-74l-38 -461h-41l38 461h-104l-37 -461h-41l37 461h-70zM131 502h105l24 303h-102z" />
<glyph unicode="$" horiz-adv-x="350" d="M35 49l6 55q12 -28 41 -49.5t65 -21.5q56 0 92.5 50.5t36.5 164.5q0 90 -26.5 185t-87.5 235q-71 161 -97 251t-26 166q0 185 106 224v149h41v-141q68 0 97 -47l-9 -47q-8 21 -29 36t-48 15q-52 0 -81.5 -47.5t-29.5 -139.5q0 -146 104 -368q77 -172 104.5 -268 t27.5 -201q0 -117 -37.5 -180t-98.5 -76v-170h-41v166q-77 3 -110 59z" />
<glyph unicode="%" horiz-adv-x="563" d="M47 1057q0 126 20.5 193t71.5 67q92 0 92 -260q0 -256 -92 -256q-51 0 -71.5 65.5t-20.5 190.5zM90 1057q0 -99 13 -158t36 -59t36 59t13 158q0 100 -13 160.5t-36 60.5t-36 -60.5t-13 -160.5zM102 -2l322 1319l37 -8l-320 -1319zM334 248q0 125 20.5 191.5t71.5 66.5 q90 0 90 -258t-90 -258q-51 0 -71.5 66.5t-20.5 191.5zM375 248q0 -99 14 -159t37 -60t36 59.5t13 159.5t-13 159.5t-36 59.5t-37 -60t-14 -159z" />
<glyph unicode="&#x26;" horiz-adv-x="452" d="M47 283q0 123 22.5 213t77.5 200q-45 130 -62 210t-17 159q0 124 31 188t83 64q54 0 89.5 -64t35.5 -188q0 -95 -23.5 -168t-88.5 -199l143 -405q29 102 39 282l35 -43q-9 -175 -50 -311l78 -221h-51l-51 147q-30 -74 -68 -115.5t-80 -41.5q-69 0 -106 82t-37 211z M92 283q0 -108 29.5 -180t68.5 -72q61 0 125 180l-147 418q-76 -152 -76 -346zM113 1065q0 -119 61 -299q48 88 68 156.5t20 142.5q0 100 -22 155.5t-58 55.5q-69 0 -69 -211z" />
<glyph unicode="'" horiz-adv-x="135" d="M33 1307h69l-18 -346h-37z" />
<glyph unicode="(" horiz-adv-x="272" d="M51 469q0 463 131 856l45 -10q-129 -411 -129 -848q0 -231 32 -419.5t95 -414.5l-53 21q-59 184 -90 375t-31 440z" />
<glyph unicode=")" horiz-adv-x="272" d="M45 -352q129 411 129 848q0 235 -32 427.5t-95 405.5l53 -20q59 -184 90 -375t31 -440q0 -463 -131 -856z" />
<glyph unicode="*" horiz-adv-x="342" d="M14 1016l19 49l119 -109l-7 349l50 12l-5 -359l117 111l21 -45l-127 -98l86 -289l-43 -37l-72 299l-70 -295l-45 21l84 297z" />
<glyph unicode="+" horiz-adv-x="378" d="M41 547v41h127v241h45v-241h127v-41h-127v-242h-45v242h-127z" />
<glyph unicode="," horiz-adv-x="196" d="M27 -178q24 37 41 88t18 92q-9 9 -18 32.5t-9 47.5q0 30 12.5 64t28.5 34q12 0 26.5 -35.5t14.5 -62.5q0 -56 -21 -128t-61 -134z" />
<glyph unicode="-" horiz-adv-x="280" d="M41 547v41h199v-41h-199z" />
<glyph unicode="." horiz-adv-x="196" d="M57 84q0 26 13.5 61t25.5 35q16 0 28.5 -34t12.5 -62t-12.5 -61t-28.5 -33q-12 0 -25.5 34t-13.5 60z" />
<glyph unicode="/" horiz-adv-x="401" d="M20 0l322 1317l39 -8l-320 -1319z" />
<glyph unicode="0" horiz-adv-x="434" d="M53 653q0 664 164 664q166 0 166 -664q0 -663 -166 -663q-164 0 -164 663zM100 653q0 -282 29.5 -451t87.5 -169t88.5 169.5t30.5 450.5t-30.5 451t-88.5 170t-87.5 -169.5t-29.5 -451.5z" />
<glyph unicode="1" horiz-adv-x="270" d="M33 1241l6 45l139 27v-1313h-45v1262z" />
<glyph unicode="2" horiz-adv-x="339" d="M18 0v6q99 248 161.5 525.5t62.5 437.5q0 169 -29 238t-84 69q-58 0 -88 -64l-4 54q31 51 98 51q73 0 112.5 -80t39.5 -268q0 -162 -62.5 -431.5t-150.5 -496.5h233v-41h-289z" />
<glyph unicode="3" horiz-adv-x="327" d="M27 98q12 -26 37 -46.5t55 -20.5q125 0 125 370q0 127 -30 219.5t-71 92.5q-22 0 -28 -2l-9 41q48 45 76.5 119.5t28.5 160.5q0 104 -23 174t-69 70q-47 0 -74 -53l-6 49q35 45 80 45q69 0 103 -77.5t34 -207.5q0 -86 -25 -164.5t-65 -115.5q57 -12 90 -111t33 -242 q0 -132 -15 -219.5t-52.5 -138.5t-98.5 -51q-57 0 -90 43z" />
<glyph unicode="4" horiz-adv-x="368" d="M12 430l224 877h43v-877h67v-41h-67v-389h-46v389h-215zM57 430h176v477q0 171 5 238l-5 2q-24 -113 -55 -240z" />
<glyph unicode="5" horiz-adv-x="362" d="M51 92q36 -61 96 -61q127 0 127 346q0 156 -33.5 256t-95.5 100q-49 0 -82 -26l9 600h215l-6 -41h-166l-6 -500q18 6 43 6q84 0 125.5 -105.5t41.5 -289.5q0 -387 -167 -387q-60 0 -95 41z" />
<glyph unicode="6" horiz-adv-x="391" d="M47 416q0 261 60 505t155 394l43 -15q-68 -114 -121 -266t-73 -303q27 49 84 49q76 0 113.5 -105.5t37.5 -295.5q0 -389 -145 -389q-76 0 -115 112t-39 314zM92 416q0 -176 30.5 -280.5t78.5 -104.5t74 97.5t26 252.5q0 159 -29.5 258.5t-76.5 99.5q-65 0 -91 -75 q0 -3 -3.5 -45.5t-6 -93.5t-2.5 -109z" />
<glyph unicode="7" horiz-adv-x="325" d="M12 1266v41h293l-190 -1307h-45l184 1266h-242z" />
<glyph unicode="8" horiz-adv-x="409" d="M47 322q0 137 35 231.5t88 142.5q-107 136 -107 338q0 129 38.5 206t101.5 77t102 -76.5t39 -206.5q0 -107 -31 -197.5t-75 -138.5q46 -46 84 -145t38 -231q0 -150 -42 -241t-113 -91q-72 0 -115 91t-43 241zM90 322q0 -125 34.5 -208t80.5 -83q45 0 76.5 82t31.5 209 q0 120 -35 210t-79 127q-46 -39 -77.5 -127t-31.5 -210zM111 1034q0 -189 96 -299q94 97 94 299q0 103 -28.5 172.5t-69.5 69.5q-38 0 -65 -70t-27 -172z" />
<glyph unicode="9" horiz-adv-x="391" d="M45 928q0 389 145 389q76 0 114 -111.5t38 -314.5q0 -261 -59 -508t-154 -391l-43 14q68 107 120.5 262t72.5 307q-27 -49 -82 -49q-76 0 -114 106t-38 296zM90 926q0 -158 30 -258.5t77 -100.5q64 0 88 76q12 70 12 248q0 174 -30.5 279.5t-76.5 105.5q-48 0 -74 -97.5 t-26 -252.5z" />
<glyph unicode=":" horiz-adv-x="196" d="M57 84q0 26 13.5 61t25.5 35q16 0 28.5 -34t12.5 -62t-12.5 -61t-28.5 -33q-12 0 -25.5 34t-13.5 60zM57 842q0 26 13.5 61t25.5 35q16 0 28.5 -34t12.5 -62t-12.5 -61t-28.5 -33q-12 0 -25.5 34t-13.5 60z" />
<glyph unicode=";" horiz-adv-x="196" d="M27 -178q24 37 41 88t18 92q-9 9 -18 32.5t-9 47.5q0 30 12.5 64t28.5 34q12 0 26.5 -35.5t14.5 -62.5q0 -56 -21 -128t-61 -134zM57 842q0 26 13.5 61t25.5 35q16 0 28.5 -34t12.5 -62t-12.5 -61t-28.5 -33q-12 0 -25.5 34t-13.5 60z" />
<glyph unicode="&#x3c;" horiz-adv-x="299" d="M39 567l172 269l39 -23l-158 -246l158 -245l-39 -23z" />
<glyph unicode="=" horiz-adv-x="378" d="M41 426v41h299v-41h-299zM41 668v41h299v-41h-299z" />
<glyph unicode="&#x3e;" horiz-adv-x="299" d="M51 322l158 245l-158 246l37 23l172 -269l-172 -268z" />
<glyph unicode="?" horiz-adv-x="350" d="M35 1264q34 53 110 53q75 0 116.5 -75.5t41.5 -209.5q0 -142 -88 -352q-53 -122 -53 -289q0 -59 10 -137l-41 25q-12 62 -12 112q0 169 61 322q30 77 43 115t24 93.5t11 110.5q0 112 -31.5 178t-87.5 66q-33 0 -59 -18.5t-39 -45.5zM111 84q0 27 14.5 61.5t30.5 34.5 q14 0 28.5 -34.5t14.5 -61.5q0 -26 -14.5 -60t-28.5 -34q-16 0 -30.5 33.5t-14.5 60.5z" />
<glyph unicode="@" horiz-adv-x="620" d="M53 530q0 224 38.5 404t107.5 281.5t155 101.5q55 0 96.5 -40t66.5 -112.5t37.5 -165.5t12.5 -206q0 -118 -12 -229.5t-45.5 -200.5t-81.5 -89q-28 0 -43.5 19.5t-17.5 52.5q-8 -31 -31 -51.5t-53 -20.5q-95 0 -95 238q0 222 51 362t132 140q54 0 71 -45l-36 -504 q-1 -14 -4 -42.5t-3 -41.5q0 -66 27 -66q22 0 44.5 59.5t38 172.5t15.5 246t-19.5 242t-58.5 176t-92 67q-49 0 -95.5 -58.5t-82.5 -157t-58 -239t-22 -293.5q0 -236 42.5 -368.5t119.5 -132.5q55 0 94 57l-14 -57q-23 -39 -80 -39q-103 0 -154 141.5t-51 398.5zM233 512 q0 -90 13.5 -143.5t38.5 -53.5q70 0 82 187l32 461q-17 10 -34 10q-51 0 -91.5 -136.5t-40.5 -324.5z" />
<glyph unicode="A" horiz-adv-x="442" d="M37 0l164 1311h39l166 -1311h-48l-51 412h-176l-51 -412h-43zM135 453h166l-55 442q-1 5 -10.5 88t-14.5 135h-4q-8 -84 -24 -223z" />
<glyph unicode="B" horiz-adv-x="401" d="M66 0v1307h81q27 0 53.5 -14t52 -45.5t41 -93.5t15.5 -146q0 -117 -29.5 -187.5t-74.5 -81.5q61 -5 109 -102.5t48 -261.5q0 -172 -50 -273.5t-136 -101.5h-110zM113 43h59q59 0 101 87.5t42 244.5q0 158 -42 247t-103 89h-57v-668zM113 754h32q14 0 28.5 6.5t31 24.5 t29 45.5t20.5 73.5t8 104q0 136 -37 196t-82 60h-30v-510z" />
<glyph unicode="C" horiz-adv-x="385" d="M53 653q0 664 207 664q72 0 105 -47l-7 -45q-38 49 -92 49q-84 0 -125 -169.5t-41 -451.5t41 -451t125 -169q63 0 96 49l-8 -57q-24 -35 -92 -35q-209 0 -209 663z" />
<glyph unicode="D" horiz-adv-x="458" d="M66 0v1307h84q44 0 80.5 -18.5t69 -64t54 -118.5t34.5 -188t13 -265t-13 -264.5t-34.5 -187.5t-54 -119t-69 -64t-80.5 -18h-84zM113 43h37q204 0 204 610q0 611 -204 611h-37v-1221z" />
<glyph unicode="E" horiz-adv-x="354" d="M66 0v1307h251v-43h-204v-584h176v-43h-176v-594h227v-43h-274z" />
<glyph unicode="F" horiz-adv-x="344" d="M66 0v1307h266v-43h-219v-584h194v-43h-194v-637h-47z" />
<glyph unicode="G" horiz-adv-x="460" d="M53 653q0 664 207 664q73 0 113 -55l-8 -58q-13 29 -39.5 49.5t-59.5 20.5q-84 0 -125 -169.5t-41 -451.5q0 -277 41.5 -448.5t120.5 -171.5q38 0 66 21t39 57v467h-123v43h170v-515q-35 -116 -152 -116q-209 0 -209 663z" />
<glyph unicode="H" horiz-adv-x="460" d="M66 0v1307h47v-627h235v627h47v-1307h-47v637h-235v-637h-47z" />
<glyph unicode="I" horiz-adv-x="204" d="M78 0v1307h47v-1307h-47z" />
<glyph unicode="J" horiz-adv-x="229" d="M-37 -106q32 20 52 38.5t40.5 51.5t30.5 85.5t10 125.5v1112h47v-1121q0 -74 -11.5 -129.5t-34.5 -92t-46 -58.5t-57 -43z" />
<glyph unicode="K" horiz-adv-x="391" d="M66 0v1307h47v-635l188 635h49l-194 -637l219 -670h-51l-211 668v-668h-47z" />
<glyph unicode="L" horiz-adv-x="344" d="M66 0v1307h47v-1264h225v-43h-272z" />
<glyph unicode="M" horiz-adv-x="626" d="M61 0l37 1307h47l115 -781q21 -144 51 -389h4q16 131 54 389l114 781h45l37 -1307h-47l-18 713q-6 345 -6 358h-5q-21 -175 -49 -358l-106 -715h-41l-107 715q-12 88 -49 358h-4q0 -19 -6 -358l-18 -713h-48z" />
<glyph unicode="N" horiz-adv-x="477" d="M66 0v1307h45l174 -752q38 -159 82 -379h4q-6 363 -6 377v754h47v-1311h-41l-181 756q-23 98 -79 378h-5q7 -139 7 -376v-754h-47z" />
<glyph unicode="O" d="M53 653q0 664 195 664q52 0 90.5 -49.5t60.5 -141t32.5 -209t10.5 -264.5t-10.5 -264t-32.5 -208.5t-60.5 -141t-90.5 -49.5q-195 0 -195 663zM100 653q0 -276 38.5 -448t109.5 -172t109 171.5t38 448.5t-38 449t-109 172t-109.5 -172.5t-38.5 -448.5z" />
<glyph unicode="P" horiz-adv-x="358" d="M66 0v1307h106q78 0 121 -95.5t43 -240.5q0 -144 -42.5 -239t-119.5 -95h-61v-637h-47zM113 680h59q53 0 85 81t32 210q0 130 -32.5 211.5t-88.5 81.5h-55v-584z" />
<glyph unicode="Q" d="M53 653q0 664 195 664q52 0 90.5 -49.5t60.5 -141t32.5 -209t10.5 -264.5q0 -274 -39.5 -448.5t-123.5 -206.5l-3 -4q25 -11 50 -43q63 -55 114 -55q22 0 43 6l-34 -37q-16 -4 -33 -4q-53 0 -133 80q-42 42 -60 51q-170 44 -170 661zM100 653q0 -276 38.5 -448 t109.5 -172t109 171.5t38 448.5t-38 449t-109 172t-109.5 -172.5t-38.5 -448.5z" />
<glyph unicode="R" horiz-adv-x="399" d="M66 0v1307h104q78 0 121 -95.5t43 -240.5q0 -126 -30 -209.5t-81 -108.5l187 -653h-48l-182 637h-67v-637h-47zM113 680h57q55 0 86 80.5t31 210.5q0 131 -31.5 212t-87.5 81h-55v-584z" />
<glyph unicode="S" horiz-adv-x="356" d="M27 129q15 -38 48 -67t72 -29q56 0 92.5 50.5t36.5 164.5q0 90 -26.5 185t-87.5 235q-71 161 -97 251t-26 166q0 113 42.5 172.5t111.5 59.5q61 0 90 -47l-9 -47q-8 21 -29 36t-48 15q-52 0 -81.5 -47.5t-29.5 -139.5q0 -146 104 -368q77 -172 104.5 -268t27.5 -201 q0 -131 -48 -195.5t-122 -64.5q-82 0 -117 59z" />
<glyph unicode="T" horiz-adv-x="356" d="M4 1264v43h348v-43h-151v-1264h-47v1264h-150z" />
<glyph unicode="U" horiz-adv-x="460" d="M66 186v1121h47v-1117q0 -77 30.5 -117t85.5 -40t87 40.5t32 116.5v1117h47v-1121q0 -92 -44 -144t-122 -52t-120.5 51.5t-42.5 144.5z" />
<glyph unicode="V" horiz-adv-x="432" d="M33 1307h47l92 -750q2 -15 41 -375h4q39 355 41 375l90 750h43l-158 -1309h-38z" />
<glyph unicode="W" horiz-adv-x="710" d="M39 1307h47l88 -758q20 -155 37 -379h4q19 251 35 379l86 758h43l84 -758q26 -218 39 -379h4q18 227 37 379l86 758h43l-150 -1309h-39l-88 745q-8 72 -21.5 206t-17.5 169h-4q-15 -199 -35 -375l-88 -745h-39z" />
<glyph unicode="X" horiz-adv-x="391" d="M27 0l145 684l-133 623h45l78 -363q19 -75 35 -180h4q6 26 16.5 87.5t18.5 92.5l77 363h47l-135 -629l148 -678h-45l-86 401q-6 28 -12.5 60.5t-14 74t-12.5 66.5h-4q-11 -75 -39 -201l-86 -401h-47z" />
<glyph unicode="Y" horiz-adv-x="399" d="M25 1307h47l88 -428q8 -41 21 -115.5t18 -99.5h4q6 34 19 105.5t20 109.5l88 428h45l-152 -734v-573h-47v573z" />
<glyph unicode="Z" horiz-adv-x="362" d="M25 0v4l161 842q14 62 28 132t30.5 154t25.5 128l-2 4h-205v43h259v-4l-164 -844q-46 -238 -82 -412l2 -4h248v-43h-301z" />
<glyph unicode="[" horiz-adv-x="282" d="M66 -348v1655h188v-43h-141v-1569h141v-43h-188z" />
<glyph unicode="\" horiz-adv-x="401" d="M20 1309l41 8l320 -1317l-39 -10z" />
<glyph unicode="]" horiz-adv-x="282" d="M29 1264v43h190v-1655h-188v43h141l-2 1569h-141z" />
<glyph unicode="^" horiz-adv-x="370" d="M45 1028q45 33 82 99t57 137q22 -71 59.5 -136t82.5 -100l-23 -22q-82 61 -119 147q-28 -82 -116 -147z" />
<glyph unicode="_" horiz-adv-x="417" d="M0 -233h422v-41h-422v41z" />
<glyph unicode="`" horiz-adv-x="348" d="M78 1161l16 74q23 -77 69 -136.5t107 -92.5l-22 -21q-129 67 -170 176z" />
<glyph unicode="a" horiz-adv-x="374" d="M39 238q0 130 45 209.5t109 84.5l57 7v120q0 118 -25.5 179t-68.5 61q-23 0 -44 -15t-32 -38l-6 49q26 43 84 43q137 0 137 -268v-490q0 -128 65 -162l-28 -28q-58 30 -66 98q-6 -43 -33 -70.5t-67 -27.5q-61 0 -94 65t-33 183zM84 238q0 -94 24 -150.5t58 -56.5 q36 0 60 63.5t24 151.5v252l-53 -6q-42 -5 -77.5 -75.5t-35.5 -178.5z" />
<glyph unicode="b" horiz-adv-x="407" d="M66 68v1239h45v-426q23 57 82 57q169 0 169 -475q0 -473 -178 -473q-42 0 -73.5 23t-44.5 55zM111 72q25 -41 73 -41q65 0 99 117t34 315q0 196 -33 315t-94 119q-24 0 -45.5 -21t-33.5 -61v-743z" />
<glyph unicode="c" horiz-adv-x="331" d="M47 463q0 475 168 475q61 0 84 -41l-2 -49q-30 49 -80 49q-61 0 -94 -118.5t-33 -315.5t33 -314.5t96 -117.5q57 0 78 43l-4 -54q-26 -30 -78 -30q-168 0 -168 473z" />
<glyph unicode="d" horiz-adv-x="409" d="M47 459q0 227 38.5 353t129.5 126q52 0 86 -57v426h45v-1307h-41l-2 51q-11 -26 -36 -43.5t-54 -17.5q-166 0 -166 469zM92 459q0 -192 32.5 -310t90.5 -118q27 0 49.5 27.5t36.5 64.5v690q-10 35 -35.5 59.5t-50.5 24.5q-58 0 -90.5 -121t-32.5 -317z" />
<glyph unicode="e" horiz-adv-x="376" d="M47 463q0 475 154 475q38 0 65.5 -27.5t42.5 -76.5t22 -106.5t7 -125.5q0 -5 -2 -42.5t-2 -41.5l-35 -37h-207q-1 -22 -1 -44q0 -95 11 -177q13 -100 44 -164.5t75 -64.5q52 0 78 45l-4 -53q-29 -33 -80 -33q-168 0 -168 473zM92 522h197q4 20 4 70q0 121 -22.5 213 t-69.5 92q-48 0 -76 -107.5t-33 -267.5z" />
<glyph unicode="f" horiz-adv-x="284" d="M23 887v41h69v53q0 168 34 252t116 84q44 0 65 -29l-4 -41q-21 29 -59 29q-57 0 -82 -75.5t-25 -219.5v-53h135l-2 -41h-133v-887h-45v887h-69z" />
<glyph unicode="g" horiz-adv-x="387" d="M47 -82q0 207 90 268l-59 70q0 39 19 75t48 46q-79 63 -79 270q0 132 33.5 211.5t95.5 79.5q29 0 51 -18q27 -19 43 -19q36 0 51 35l4 -43q-10 -29 -53 -33q35 -85 35 -213q0 -130 -33 -209.5t-98 -79.5q-30 0 -51 -26.5t-21 -52.5q0 -18 19.5 -43.5t43.5 -32.5l29 -10 q131 -45 131 -277q0 -120 -39.5 -198t-109.5 -78q-71 0 -110.5 78t-39.5 200zM92 -82q0 -96 29 -166.5t76 -70.5t75.5 70t28.5 165q0 84 -24 151.5t-74 86.5l-29 10q-82 -52 -82 -246zM111 647q0 -113 23 -180.5t61 -67.5t62 68t24 180t-24 181t-62 69t-61 -68.5t-23 -181.5 z" />
<glyph unicode="h" horiz-adv-x="405" d="M66 0v1307h45v-449q7 33 33 56.5t67 23.5q69 0 103 -55.5t34 -153.5v-729h-45v727q0 84 -24 127t-68 43q-43 0 -71.5 -46.5t-28.5 -123.5v-727h-45z" />
<glyph unicode="i" horiz-adv-x="202" d="M68 1188q0 24 11 52t21 28q12 0 23.5 -28t11.5 -52t-11.5 -51t-23.5 -27q-10 0 -21 27t-11 51zM78 0v928h45v-928h-45z" />
<glyph unicode="j" horiz-adv-x="202" d="M-29 -328q59 34 83 112t24 218v926h45v-930q0 -145 -30 -230.5t-93 -123.5zM68 1188q0 24 11 52t21 28q12 0 23.5 -28t11.5 -52t-11.5 -51t-23.5 -27q-10 0 -21 27t-11 51z" />
<glyph unicode="k" horiz-adv-x="344" d="M66 0v1307h45v-830l143 451h45l-147 -453l172 -475h-48l-165 471v-471h-45z" />
<glyph unicode="l" horiz-adv-x="219" d="M78 182v1125h45v-1125q0 -67 14.5 -103.5t46.5 -60.5l-28 -28q-78 49 -78 192z" />
<glyph unicode="m" horiz-adv-x="614" d="M57 0v928h45v-66q7 30 32.5 53t64.5 23q90 0 114 -102q11 47 40.5 74.5t72.5 27.5q66 0 98.5 -54t32.5 -149v-735h-45v733q0 164 -86 164q-40 0 -68 -44.5t-28 -119.5v-733h-45v733q0 164 -86 164q-40 0 -68.5 -44.5t-28.5 -119.5v-733h-45z" />
<glyph unicode="n" horiz-adv-x="397" d="M57 0v928h45v-70q7 32 33.5 56t67.5 24q69 0 103 -55.5t34 -153.5v-729h-45v727q0 84 -24 127t-68 43q-43 0 -72 -46.5t-29 -123.5v-727h-45z" />
<glyph unicode="o" horiz-adv-x="413" d="M47 463q0 475 160 475q162 0 162 -475q0 -473 -162 -473q-160 0 -160 473zM92 463q0 -195 30.5 -313.5t84.5 -118.5q55 0 86 119t31 313q0 193 -31.5 313.5t-85.5 120.5t-84.5 -120t-30.5 -314z" />
<glyph unicode="p" horiz-adv-x="409" d="M66 -348v1276h38l2 -51q14 27 38.5 44t52.5 17q165 0 165 -469q0 -228 -38 -353.5t-129 -125.5q-25 0 -48 15.5t-36 41.5v-395h-45zM111 115q11 -35 35 -59.5t49 -24.5q61 0 91.5 119t30.5 319q0 192 -32 310t-90 118q-27 0 -49.5 -28t-34.5 -64v-690z" />
<glyph unicode="q" horiz-adv-x="407" d="M47 465q0 473 176 473q43 0 84 -41l10 41h27v-1286h-45v395q-23 -57 -84 -57q-168 0 -168 475zM92 465q0 -195 32.5 -314.5t92.5 -119.5q24 0 46.5 21t35.5 61v743q-24 41 -76 41q-66 0 -98.5 -116t-32.5 -316z" />
<glyph unicode="r" horiz-adv-x="272" d="M70 0v928h43v-125q8 58 46 94.5t99 36.5l4 -45h-10q-65 0 -101 -71t-36 -169v-649h-45z" />
<glyph unicode="s" horiz-adv-x="315" d="M33 109q36 -78 100 -78q43 0 71.5 38t28.5 103q0 114 -90 287q-61 123 -80.5 180.5t-19.5 136.5q0 75 35.5 118.5t87.5 43.5q55 0 76 -37l-9 -49q-20 45 -63 45q-38 0 -61 -33.5t-23 -85.5q0 -64 16 -118t56 -128q70 -128 95.5 -202t25.5 -156q0 -87 -40.5 -135.5 t-99.5 -48.5q-68 0 -98 49z" />
<glyph unicode="t" horiz-adv-x="294" d="M18 887v41h78v200l45 37v-237h140l-2 -41h-138v-717q0 -137 64 -137q40 0 55 30l-6 -51q-12 -20 -51 -20q-49 0 -78 44.5t-29 129.5v721h-78z" />
<glyph unicode="u" horiz-adv-x="397" d="M57 199v729h45v-727q0 -84 24.5 -127t68.5 -43q43 0 71.5 46.5t28.5 123.5v727h45v-928h-45v61q-7 -27 -34 -49t-66 -22q-70 0 -104 55.5t-34 153.5z" />
<glyph unicode="v" horiz-adv-x="385" d="M41 928h45l76 -525q21 -145 31 -258h4q10 144 28 258l78 525h41l-131 -930h-39z" />
<glyph unicode="w" horiz-adv-x="620" d="M41 928h45l72 -522q21 -188 28 -261h4q3 51 27 258l74 525h45l70 -522q18 -112 28 -261h4q16 177 29 258l72 525h41l-123 -930h-41l-74 526q-13 81 -29 262h-4q-6 -72 -28 -262l-74 -526h-39z" />
<glyph unicode="x" horiz-adv-x="360" d="M31 0l123 479l-113 449h45l64 -256q3 -12 13 -56t15 -71h4q8 40 31 129l66 254h43l-115 -441l123 -487h-45l-72 281q-16 54 -31 145h-4q-11 -74 -31 -145l-73 -281h-43z" />
<glyph unicode="y" horiz-adv-x="405" d="M10 -330q39 42 64.5 84.5t56 136.5t53.5 234l-149 803h45l86 -461q24 -122 37 -231h4q7 40 19.5 115.5t19.5 115.5l82 461h43l-146 -803q-38 -212 -80.5 -311.5t-107.5 -169.5z" />
<glyph unicode="z" horiz-adv-x="317" d="M23 0v4l129 582q7 34 20.5 98.5t24 112t20.5 86.5l-2 4h-156v41h211v-4l-129 -592q-9 -36 -30.5 -136t-34.5 -151l2 -4h198v-41h-253z" />
<glyph unicode="{" horiz-adv-x="356" d="M10 492q109 98 109 387q0 70 2.5 121.5t9.5 104.5t20.5 89t34.5 65.5t53 43.5t74 14l21 -37q-37 0 -64.5 -13t-45.5 -40t-30 -60t-18 -82t-8 -95.5t-2 -110.5q0 -295 -103 -387q103 -92 103 -400q0 -65 2 -112.5t8 -97.5t18 -83.5t30 -61t45.5 -41t64.5 -13.5l-21 -39 q-42 0 -74 14.5t-53 45t-34.5 67.5t-20.5 91.5t-9.5 106.5t-2.5 123q0 302 -109 400z" />
<glyph unicode="|" horiz-adv-x="176" d="M66 -348v1655h45v-1655h-45z" />
<glyph unicode="}" horiz-adv-x="356" d="M23 -317q53 0 87.5 29t51.5 89t22.5 126t5.5 165q0 307 101 400q-101 93 -101 387q0 97 -5.5 162t-22.5 123.5t-51.5 87t-87.5 28.5l20 37q42 0 74 -14t53 -43.5t35 -65.5t21 -89t9.5 -104.5t2.5 -121.5q0 -292 106 -387q-106 -95 -106 -400q0 -70 -2.5 -122.5t-9.5 -107 t-21 -91.5t-35 -67t-53 -45t-74 -15z" />
<glyph unicode="~" horiz-adv-x="331" d="M31 489l2 58q20 35 62.5 63.5t74.5 28.5l20 -90q27 0 58.5 29.5t52.5 68.5l-2 -57q-17 -36 -60 -64t-79 -28l-19 90q-27 0 -57.5 -30.5t-52.5 -68.5z" />
<glyph unicode="&#xa1;" horiz-adv-x="210" d="M66 1223q0 28 12 61t28 33q13 0 26 -34t13 -60q0 -27 -13 -62t-26 -35q-16 0 -28 34t-12 63zM76 0l6 1053l41 -19l6 -1034h-53z" />
<glyph unicode="&#xa2;" horiz-adv-x="335" d="M47 842q0 424 141 469v147h41v-143q47 -2 70 -39l-2 -49q-30 49 -80 49q-61 0 -94 -118.5t-33 -315.5t33 -314.5t96 -117.5q57 0 78 43l-4 -54q-21 -24 -64 -30v-136h-41v142q-141 45 -141 467z" />
<glyph unicode="&#xa3;" horiz-adv-x="391" d="M31 625v41h69v278q0 373 164 373q45 0 66 -29l-4 -41q-21 29 -60 29q-64 0 -92.5 -83.5t-28.5 -248.5v-278h138l-4 -41h-134v-146q0 -289 -43 -440q27 14 115 14t145 -24l-6 -39q-56 22 -139 22t-147 -22l-19 20q49 181 49 469v146h-69z" />
<glyph unicode="&#xa4;" horiz-adv-x="405" d="M33 915l35 17q7 -10 20 -41q3 -8 10.5 -24t13 -30t9.5 -28q34 63 82 63q45 0 80 -59l53 119l35 -17l-64 -153q31 -95 31 -195q0 -115 -33 -200l66 -154l-37 -16l-53 116q-35 -53 -78 -53t-78 59l-55 -122l-33 16l63 160q-28 86 -28 194q0 104 26 187zM113 567 q0 -110 26.5 -187t63.5 -77q38 0 65 77t27 187q0 108 -27 185t-65 77q-37 0 -63.5 -77.5t-26.5 -184.5z" />
<glyph unicode="&#xa5;" horiz-adv-x="399" d="M25 1307h47l88 -428q8 -41 21 -115.5t18 -99.5h4q6 34 19 105.5t20 109.5l88 428h45l-121 -582h88v-41h-96l-23 -111v-6h119v-41h-119v-526h-47v526h-117v41h117v6l-22 111h-95v41h86z" />
<glyph unicode="&#xa6;" horiz-adv-x="176" d="M66 -348v708h45v-708h-45zM66 602v705h45v-705h-45z" />
<glyph unicode="&#xa7;" horiz-adv-x="368" d="M49 1085q0 113 41.5 172.5t110.5 59.5q61 0 90 -47l-8 -47q-8 21 -29.5 36t-48.5 15q-52 0 -81.5 -47.5t-29.5 -139.5q0 -134 43 -239l180 -463l-34 -291q36 -89 36 -223q0 -113 -41 -172t-110 -59q-61 0 -90 47l8 47q8 -21 29.5 -36t48.5 -15q52 0 81 47t29 139 q0 129 -43 240l-180 462l35 289q-34 84 -37 225zM96 582l154 -398l22 191l-153 395z" />
<glyph unicode="&#xa8;" horiz-adv-x="348" d="M74 1065q0 24 11.5 53t23.5 29t23 -29t11 -53t-11 -52t-23 -28t-23.5 28t-11.5 52zM203 1065q0 24 12.5 53t24.5 29q11 0 22.5 -30t11.5 -52q0 -24 -12 -52t-22 -28q-12 0 -24.5 28t-12.5 52z" />
<glyph unicode="&#xa9;" horiz-adv-x="622" d="M45 512q0 232 70 376t192 144q121 0 192.5 -144.5t71.5 -375.5q0 -232 -71.5 -377t-192.5 -145q-122 0 -192 144.5t-70 377.5zM84 512q0 -217 62 -352t161 -135q98 0 161.5 135.5t63.5 351.5q0 214 -64 349.5t-161 135.5q-98 0 -160.5 -135t-62.5 -350zM215 506 q0 143 28 221t81 78q34 0 59 -25l-4 -41q-21 29 -45 29q-35 0 -55.5 -72t-20.5 -190q0 -119 20.5 -190.5t55.5 -71.5q25 0 47 28l-8 -45q-14 -20 -49 -20q-53 0 -81 77.5t-28 221.5z" />
<glyph unicode="&#xaa;" horiz-adv-x="303" d="M33 758q0 103 36 169.5t89 71.5l43 5v88q0 184 -72 184q-22 0 -39 -15t-24 -34l-7 51q17 39 72 39q115 0 115 -217v-389q0 -60 13 -86t36 -39l-27 -27q-33 14 -49 64q-6 -27 -29.5 -45.5t-52.5 -18.5q-104 0 -104 199zM76 756q0 -75 17.5 -116.5t43.5 -41.5q30 0 47 46 t17 120v199l-39 -2q-32 -5 -59 -62t-27 -143zM125 326q0 24 11.5 53t23.5 29t23.5 -29t11.5 -53t-11.5 -52t-23.5 -28t-23.5 28t-11.5 52z" />
<glyph unicode="&#xab;" horiz-adv-x="417" d="M12 567q57 50 109.5 130t77.5 153l26 -21q-22 -77 -65 -149.5t-86 -112.5q43 -40 86 -112.5t65 -149.5l-26 -20q-25 73 -77 152.5t-110 129.5zM180 567q55 48 107 129t78 154l26 -21q-23 -78 -65 -150.5t-86 -111.5q44 -39 86 -111.5t65 -150.5l-26 -20q-26 73 -78 153.5 t-107 128.5z" />
<glyph unicode="&#xac;" horiz-adv-x="415" d="M41 547v41h319v-195h-45v154h-274z" />
<glyph unicode="&#xad;" horiz-adv-x="280" d="M41 547v41h199v-41h-199z" />
<glyph unicode="&#xae;" horiz-adv-x="475" d="M43 981q0 148 54 242t139 94q86 0 141 -94t55 -242t-55 -243t-141 -95q-85 0 -139 95t-54 243zM78 981q0 -135 44.5 -220t113.5 -85q72 0 116.5 85t44.5 220q0 134 -44.5 218.5t-116.5 84.5q-69 0 -113.5 -85t-44.5 -218zM176 748v471h55q32 0 53 -36.5t21 -86.5 q0 -90 -41 -117l64 -203l-31 -33l-68 228h-14v-223h-39zM215 1006h14q17 0 27 24.5t10 65.5q0 37 -11.5 62.5t-25.5 25.5h-14v-178z" />
<glyph unicode="&#xaf;" horiz-adv-x="348" d="M57 1008v43h236v-43h-236z" />
<glyph unicode="&#xb0;" horiz-adv-x="288" d="M45 1171q0 60 28.5 103t69.5 43q42 0 71.5 -43t29.5 -103t-29 -102.5t-72 -42.5q-41 0 -69.5 42.5t-28.5 102.5zM82 1171q0 -47 17.5 -79.5t43.5 -32.5t44 32.5t18 79.5t-18 79t-44 32t-43.5 -32t-17.5 -79z" />
<glyph unicode="&#xb1;" horiz-adv-x="706" d="M23 887v41h69v47q0 165 37 247.5t121 82.5q38 0 67 -29l-2 -41q-23 29 -63 29q-115 0 -115 -289v-47h197v37q0 352 174 352q69 0 102 -29v-1106q0 -67 14 -103.5t46 -60.5l-29 -28q-76 48 -76 192v1082q-28 12 -57 12q-63 0 -96 -79.5t-33 -231.5v-37h96l-10 -41h-86 v-887h-45v887h-197v-887h-45v887h-69z" />
<glyph unicode="&#xb2;" horiz-adv-x="243" d="M12 500v6q63 155 104.5 325t41.5 267q0 180 -66 180q-34 0 -61 -53l-6 39q7 21 24.5 37t44.5 16q105 0 105 -219q0 -97 -39 -260.5t-94 -298.5h145v-39h-199z" />
<glyph unicode="&#xb3;" horiz-adv-x="260" d="M29 584q22 -54 71 -54q72 0 72 218q0 77 -16.5 132.5t-40.5 55.5q-4 0 -11 -1t-12 -1l-6 33q66 66 66 170q0 61 -14 101t-42 40q-11 0 -27 -13.5t-24 -27.5l-4 45q22 35 55 35q48 0 72.5 -49.5t24.5 -130.5q0 -51 -14.5 -97t-37.5 -71q34 -17 53 -77t19 -144 q0 -256 -111 -256q-46 0 -69 38z" />
<glyph unicode="&#xb4;" horiz-adv-x="348" d="M80 1006q61 33 108 92.5t70 136.5l14 -74q-42 -110 -168 -176z" />
<glyph unicode="&#xb5;" horiz-adv-x="608" d="M55 0v928h498v-928h-498zM98 43h219q-54 18 -69 74l-150 659v-733zM117 825l291 -555q-50 -20 -78.5 -55.5t-28.5 -71.5q0 -70 59 -100h150v782h-393z" />
<glyph unicode="&#xb6;" horiz-adv-x="372" d="M39 1020q0 132 49.5 209.5t112.5 77.5h149v-43h-76v-1268q0 -146 -29.5 -231t-92.5 -123l-29 28q58 34 82 111.5t24 218.5v737h-30q-62 0 -111 75.5t-49 207.5z" />
<glyph unicode="&#xb7;" horiz-adv-x="196" d="M57 553q0 26 13.5 61t25.5 35q16 0 28.5 -34t12.5 -62t-12.5 -61t-28.5 -33q-12 0 -25.5 34t-13.5 60z" />
<glyph unicode="&#xb8;" horiz-adv-x="348" d="M121 -330l4 47q10 -30 39 -30q22 0 37.5 28t15.5 84q0 57 -13.5 85t-33.5 28h-16l10 90h39l-8 -55q63 -28 63 -148q0 -79 -28 -116t-64 -37q-31 0 -45 24z" />
<glyph unicode="&#xb9;" horiz-adv-x="217" d="M35 1266l8 34l98 17v-817h-41v776z" />
<glyph unicode="&#xba;" horiz-adv-x="362" d="M47 936q0 175 32 278t101 103q131 0 131 -381q0 -377 -131 -377q-133 0 -133 377zM92 936q0 -156 23 -247t65 -91t65 91t23 247q0 155 -23 247.5t-65 92.5t-65 -92.5t-23 -247.5zM145 326q0 24 11.5 53t23.5 29t23.5 -29t11.5 -53t-11.5 -52t-23.5 -28t-23.5 28t-11.5 52 z" />
<glyph unicode="&#xbb;" horiz-adv-x="417" d="M27 305q23 78 65 150.5t86 111.5q-44 39 -86 111.5t-65 150.5l26 21q22 -71 75 -152.5t110 -130.5q-57 -49 -110 -130t-75 -152zM193 305q22 77 65 149.5t86 112.5q-43 40 -86 112.5t-65 149.5l24 21q26 -73 79 -154t110 -129q-57 -48 -110.5 -128.5t-78.5 -153.5z" />
<glyph unicode="&#xbc;" horiz-adv-x="628" d="M35 1266l8 34l98 17v-817h-41v776zM117 -2l319 1319l39 -8l-321 -1319zM354 272l129 541h56v-539h43v-38h-43v-236h-43v236h-136zM395 274h101v295q0 44 4 146l-4 2q-16 -102 -31 -148z" />
<glyph unicode="&#xbd;" horiz-adv-x="651" d="M35 1266l8 34l98 17v-817h-41v776zM117 -2l319 1319l39 -8l-321 -1319zM418 0v6q64 154 103.5 322.5t39.5 267.5q0 182 -65 182q-37 0 -62 -55l-6 41q23 53 70 53q104 0 104 -221q0 -98 -39 -260.5t-94 -296.5h145v-39h-196z" />
<glyph unicode="&#xbe;" horiz-adv-x="657" d="M29 584q22 -54 71 -54q72 0 72 218q0 77 -16.5 132.5t-40.5 55.5q-4 0 -11 -1t-12 -1l-6 33q66 66 66 170q0 61 -14 101t-42 40q-11 0 -27 -13.5t-24 -27.5l-4 45q22 35 55 35q48 0 72.5 -49.5t24.5 -130.5q0 -51 -14.5 -97t-37.5 -71q34 -17 53 -77t19 -144 q0 -256 -111 -256q-46 0 -69 38zM147 -2l322 1319l37 -8l-322 -1319zM385 272l129 541h55v-539h43v-38h-43v-236h-41v236h-135zM426 274h102v295q0 44 4 146l-4 2q-24 -121 -30 -148z" />
<glyph unicode="&#xbf;" horiz-adv-x="350" d="M47 274q0 152 88 353q53 137 53 288q0 60 -10 138l41 -25q10 -52 10 -113q0 -183 -61 -321q-41 -108 -58.5 -174.5t-17.5 -145.5q0 -113 30 -178t89 -65q64 0 98 63l4 -49q-29 -55 -108 -55q-75 0 -116.5 75t-41.5 209zM150 1223q0 27 14.5 60.5t30.5 33.5t30.5 -33.5 t14.5 -60.5q0 -28 -14.5 -62.5t-30.5 -34.5t-30.5 34.5t-14.5 62.5z" />
<glyph unicode="&#xc0;" horiz-adv-x="442" d="M37 0l164 1311h39l166 -1311h-48l-51 412h-176l-51 -412h-43zM82 1571l16 74q23 -77 69 -136.5t107 -92.5l-22 -21q-129 67 -170 176zM135 453h166l-55 442q-1 5 -10.5 88t-14.5 135h-4q-8 -84 -24 -223z" />
<glyph unicode="&#xc1;" horiz-adv-x="442" d="M37 0l164 1311h39l166 -1311h-48l-51 412h-176l-51 -412h-43zM135 453h166l-55 442q-1 5 -10.5 88t-14.5 135h-4q-8 -84 -24 -223zM164 1416q61 33 108 92.5t70 136.5l14 -74q-42 -110 -168 -176z" />
<glyph unicode="&#xc2;" horiz-adv-x="442" d="M37 0l164 1311h39l166 -1311h-48l-51 412h-176l-51 -412h-43zM82 1416q85 64 135 231q21 -69 56 -133.5t77 -97.5l-20 -21q-81 57 -113 143q-29 -84 -113 -143zM135 453h166l-55 442q-1 5 -10.5 88t-14.5 135h-4q-8 -84 -24 -223z" />
<glyph unicode="&#xc3;" horiz-adv-x="442" d="M37 0l164 1311h39l166 -1311h-48l-51 412h-176l-51 -412h-43zM80 1395l2 59q18 35 61 62.5t76 27.5l21 -90q27 0 58 30.5t50 69.5l-2 -59q-15 -35 -57.5 -63.5t-79.5 -28.5l-19 92q-27 0 -57 -30.5t-53 -69.5zM135 453h166l-55 442q-1 5 -10.5 88t-14.5 135h-4 q-8 -84 -24 -223z" />
<glyph unicode="&#xc4;" horiz-adv-x="442" d="M37 0l164 1311h39l166 -1311h-48l-51 412h-176l-51 -412h-43zM117 1475q0 24 11.5 53t23.5 29t23 -29t11 -53t-11 -52t-23 -28t-23.5 28t-11.5 52zM135 453h166l-55 442q-1 5 -10.5 88t-14.5 135h-4q-8 -84 -24 -223zM246 1475q0 24 12.5 53t24.5 29q11 0 22.5 -30 t11.5 -52q0 -24 -12 -52t-22 -28q-12 0 -24.5 28t-12.5 52z" />
<glyph unicode="&#xc5;" horiz-adv-x="442" d="M37 0l164 1311h39l166 -1311h-48l-51 412h-176l-51 -412h-43zM121 1518q0 61 28 103t70 42q41 0 69.5 -42.5t28.5 -102.5t-28.5 -102t-69.5 -42q-42 0 -70 41.5t-28 102.5zM135 453h166l-55 442q-1 5 -10.5 88t-14.5 135h-4q-8 -84 -24 -223zM158 1518q0 -45 17.5 -78 t43.5 -33q25 0 43.5 33.5t18.5 77.5q0 47 -18.5 79.5t-43.5 32.5q-26 0 -43.5 -32.5t-17.5 -79.5z" />
<glyph unicode="&#xc6;" horiz-adv-x="589" d="M14 0l262 1307h281v-43h-207v-584h178v-43h-178v-594h230v-43h-277v416h-160l-84 -416h-45zM152 459h151v524q0 96 4 264h-4q-29 -181 -47 -264z" />
<glyph unicode="&#xc7;" horiz-adv-x="385" d="M53 653q0 664 207 664q72 0 105 -47l-7 -45q-38 49 -92 49q-84 0 -125 -169.5t-41 -451.5t41 -451t125 -169q63 0 96 49l-8 -57q-22 -29 -82 -35l-4 -43q62 -28 62 -148q0 -79 -28 -116t-64 -37q-27 0 -45 24l4 47q10 -30 39 -30q22 0 37.5 28t15.5 84q0 57 -13.5 85 t-33.5 28h-17l11 82q-183 52 -183 659z" />
<glyph unicode="&#xc8;" horiz-adv-x="354" d="M61 1571l17 74q23 -77 69.5 -137t106.5 -93l-23 -20q-129 67 -170 176zM66 0v1307h251v-43h-204v-584h176v-43h-176v-594h227v-43h-274z" />
<glyph unicode="&#xc9;" horiz-adv-x="354" d="M66 0v1307h251v-43h-204v-584h176v-43h-176v-594h227v-43h-274zM139 1416q61 33 108 92.5t70 136.5l14 -74q-42 -110 -168 -176z" />
<glyph unicode="&#xca;" horiz-adv-x="354" d="M47 1415q44 33 79 97t56 135q21 -69 56 -134t77 -98l-20 -20q-81 57 -113 143q-17 -50 -44.5 -82.5t-67.5 -60.5zM66 0v1307h251v-43h-204v-584h176v-43h-176v-594h227v-43h-274z" />
<glyph unicode="&#xcb;" horiz-adv-x="354" d="M66 0v1307h251v-43h-204v-584h176v-43h-176v-594h227v-43h-274zM94 1475q0 24 11.5 53t23.5 29t23 -29t11 -53t-11 -52t-23 -28t-23.5 28t-11.5 52zM223 1475q0 24 12.5 53t24.5 29q11 0 22.5 -30t11.5 -52q0 -24 -12 -52t-22 -28q-12 0 -24.5 28t-12.5 52z" />
<glyph unicode="&#xcc;" horiz-adv-x="204" d="M2 1571l16 74q23 -77 69.5 -137t107.5 -93l-23 -20q-129 67 -170 176zM78 0v1307h47v-1307h-47z" />
<glyph unicode="&#xcd;" horiz-adv-x="204" d="M14 1416q61 33 108 92.5t70 136.5l14 -74q-42 -110 -168 -176zM78 0v1307h47v-1307h-47z" />
<glyph unicode="&#xce;" horiz-adv-x="204" d="M-31 1415q44 33 79 97t56 135q20 -69 56 -134t78 -98l-21 -20q-81 57 -113 143q-17 -50 -44.5 -82.5t-67.5 -60.5zM78 0v1307h47v-1307h-47z" />
<glyph unicode="&#xcf;" horiz-adv-x="204" d="M4 1475q0 24 11.5 53t23.5 29t23 -29t11 -53t-11 -52t-23 -28t-23.5 28t-11.5 52zM78 0v1307h47v-1307h-47zM133 1475q0 24 12.5 53t24.5 29q11 0 22.5 -30t11.5 -52q0 -24 -12 -52t-22 -28q-12 0 -24.5 28t-12.5 52z" />
<glyph unicode="&#xd0;" horiz-adv-x="464" d="M-6 639v41h76v627h86q56 0 99.5 -31t79 -102.5t54.5 -202.5t19 -318t-19 -318t-54.5 -202t-79 -102t-99.5 -31h-86v639h-76zM117 43h39q204 0 204 610q0 611 -204 611h-39v-584h98l-8 -41h-90v-596z" />
<glyph unicode="&#xd1;" horiz-adv-x="477" d="M66 0v1307h45l174 -752q38 -159 82 -379h4q-6 363 -6 377v754h47v-1311h-41l-181 756q-23 98 -79 378h-5q7 -139 7 -376v-754h-47zM102 1395l2 59q19 35 61.5 63t75.5 28l21 -91q27 0 58 31t50 70l-2 -60q-15 -35 -57.5 -63.5t-79.5 -28.5l-18 92q-27 0 -58 -31t-53 -69z " />
<glyph unicode="&#xd2;" d="M53 653q0 664 195 664q52 0 90.5 -49.5t60.5 -141t32.5 -209t10.5 -264.5t-10.5 -264t-32.5 -208.5t-60.5 -141t-90.5 -49.5q-195 0 -195 663zM100 653q0 -276 38.5 -448t109.5 -172t109 171.5t38 448.5t-38 449t-109 172t-109.5 -172.5t-38.5 -448.5zM101 1571l16 74 q23 -77 69 -136.5t107 -92.5l-22 -21q-129 67 -170 176z" />
<glyph unicode="&#xd3;" d="M53 653q0 664 195 664q52 0 90.5 -49.5t60.5 -141t32.5 -209t10.5 -264.5t-10.5 -264t-32.5 -208.5t-60.5 -141t-90.5 -49.5q-195 0 -195 663zM100 653q0 -276 38.5 -448t109.5 -172t109 171.5t38 448.5t-38 449t-109 172t-109.5 -172.5t-38.5 -448.5zM203 1416 q61 33 108 92.5t70 136.5l14 -74q-42 -110 -168 -176z" />
<glyph unicode="&#xd4;" d="M53 653q0 664 195 664q52 0 90.5 -49.5t60.5 -141t32.5 -209t10.5 -264.5t-10.5 -264t-32.5 -208.5t-60.5 -141t-90.5 -49.5q-195 0 -195 663zM100 653q0 -276 38.5 -448t109.5 -172t109 171.5t38 448.5t-38 449t-109 172t-109.5 -172.5t-38.5 -448.5zM109 1415 q44 33 79 97t56 135q21 -69 56 -134t77 -98l-21 -20q-39 27 -66 60t-46 83q-29 -84 -113 -143z" />
<glyph unicode="&#xd5;" d="M53 653q0 664 195 664q52 0 90.5 -49.5t60.5 -141t32.5 -209t10.5 -264.5t-10.5 -264t-32.5 -208.5t-60.5 -141t-90.5 -49.5q-195 0 -195 663zM100 653q0 -276 38.5 -448t109.5 -172t109 171.5t38 448.5t-38 449t-109 172t-109.5 -172.5t-38.5 -448.5zM113 1395l2 59 q19 35 61.5 63t75.5 28l21 -91q27 0 58 31t50 70l-2 -60q-15 -35 -57.5 -63.5t-79.5 -28.5l-18 92q-27 0 -58 -31t-53 -69z" />
<glyph unicode="&#xd6;" d="M53 653q0 664 195 664q52 0 90.5 -49.5t60.5 -141t32.5 -209t10.5 -264.5t-10.5 -264t-32.5 -208.5t-60.5 -141t-90.5 -49.5q-195 0 -195 663zM100 653q0 -276 38.5 -448t109.5 -172t109 171.5t38 448.5t-38 449t-109 172t-109.5 -172.5t-38.5 -448.5zM142 1475 q0 24 11.5 53t23.5 29t23 -29t11 -53t-11 -52t-23 -28t-23.5 28t-11.5 52zM271 1475q0 24 12.5 53t24.5 29q11 0 22.5 -30t11.5 -52q0 -24 -12 -52t-22 -28q-12 0 -24.5 28t-12.5 52z" />
<glyph unicode="&#xd7;" horiz-adv-x="321" d="M45 311l94 252l-92 252l35 12l78 -223l80 223l34 -12l-92 -250l92 -252l-34 -12l-80 219l-80 -219z" />
<glyph unicode="&#xd8;" d="M53 653q0 664 195 664q71 0 114 -88l25 108l41 -10l-39 -166q53 -164 53 -508q0 -147 -10.5 -264t-32.5 -208.5t-60.5 -141t-90.5 -49.5q-69 0 -115 88l-27 -109l-38 8l38 164q-53 167 -53 512zM100 653q0 -238 31 -407l213 905q-38 123 -96 123q-71 0 -109.5 -172.5 t-38.5 -448.5zM152 158q39 -125 96 -125q71 0 109 171.5t38 448.5q0 266 -30 408z" />
<glyph unicode="&#xd9;" horiz-adv-x="460" d="M66 186v1121h47v-1117q0 -77 30.5 -117t85.5 -40t87 40.5t32 116.5v1117h47v-1121q0 -92 -44 -144t-122 -52t-120.5 51.5t-42.5 144.5zM80 1571l16 74q23 -77 69 -136.5t107 -92.5l-22 -21q-129 67 -170 176z" />
<glyph unicode="&#xda;" horiz-adv-x="460" d="M66 186v1121h47v-1117q0 -77 30.5 -117t85.5 -40t87 40.5t32 116.5v1117h47v-1121q0 -92 -44 -144t-122 -52t-120.5 51.5t-42.5 144.5zM182 1416q61 33 108 92.5t70 136.5l14 -74q-42 -110 -168 -176z" />
<glyph unicode="&#xdb;" horiz-adv-x="460" d="M66 186v1121h47v-1117q0 -77 30.5 -117t85.5 -40t87 40.5t32 116.5v1117h47v-1121q0 -92 -44 -144t-122 -52t-120.5 51.5t-42.5 144.5zM92 1415q44 33 79 97t56 135q21 -69 56 -134t77 -98l-20 -20q-81 57 -113 143q-17 -50 -44.5 -82.5t-67.5 -60.5z" />
<glyph unicode="&#xdc;" horiz-adv-x="460" d="M66 186v1121h47v-1117q0 -77 30.5 -117t85.5 -40t87 40.5t32 116.5v1117h47v-1121q0 -92 -44 -144t-122 -52t-120.5 51.5t-42.5 144.5zM131 1475q0 24 11.5 52.5t23.5 28.5t23.5 -28.5t11.5 -52.5t-11.5 -52t-23.5 -28t-23.5 28t-11.5 52zM260 1475q0 24 12.5 52.5 t24.5 28.5q11 0 23 -29.5t12 -51.5q0 -23 -12.5 -51.5t-22.5 -28.5q-12 0 -24.5 28t-12.5 52z" />
<glyph unicode="&#xdd;" horiz-adv-x="399" d="M25 1307h47l88 -428q8 -41 21 -115.5t18 -99.5h4q6 34 19 105.5t20 109.5l88 428h45l-152 -734v-573h-47v573zM158 1416q61 33 108 92.5t70 136.5l14 -74q-42 -110 -168 -176z" />
<glyph unicode="&#xde;" horiz-adv-x="358" d="M66 0v1309h47v-154h59q78 0 121 -95.5t43 -240.5q0 -144 -42.5 -239t-119.5 -95h-61v-485h-47zM113 528h59q53 0 85 81t32 210q0 130 -32.5 211.5t-88.5 81.5h-55v-584z" />
<glyph unicode="&#xdf;" horiz-adv-x="444" d="M66 0v956q0 89 5.5 151t20 111.5t41 74t66.5 24.5q69 0 102 -86.5t33 -226.5q0 -48 -12 -101q-48 0 -74.5 -34t-26.5 -91q0 -64 17 -120t55 -126q71 -128 96 -202t25 -156q0 -87 -40.5 -135.5t-97.5 -48.5q-73 0 -100 45v57q28 -61 92 -61q43 0 72 38t29 103 q0 120 -90 287q-62 117 -81.5 176.5t-19.5 140.5q0 67 30.5 110.5t74.5 49.5q6 34 6 68q0 109 -24.5 190.5t-65.5 81.5q-88 0 -88 -318v-958h-45z" />
<glyph unicode="&#xe0;" horiz-adv-x="374" d="M39 238q0 130 45 209.5t109 84.5l57 7v120q0 118 -25.5 179t-68.5 61q-23 0 -44 -15t-32 -38l-6 49q26 43 84 43q137 0 137 -268v-490q0 -128 65 -162l-28 -28q-58 30 -66 98q-6 -43 -33 -70.5t-67 -27.5q-61 0 -94 65t-33 183zM59 1176l15 61q34 -129 149 -195l-20 -16 q-108 57 -144 150zM84 238q0 -94 24 -150.5t58 -56.5q36 0 60 63.5t24 151.5v252l-53 -6q-42 -5 -77.5 -75.5t-35.5 -178.5z" />
<glyph unicode="&#xe1;" horiz-adv-x="374" d="M39 238q0 130 45 209.5t109 84.5l57 7v120q0 118 -25.5 179t-68.5 61q-23 0 -44 -15t-32 -38l-6 49q26 43 84 43q137 0 137 -268v-490q0 -128 65 -162l-28 -28q-58 30 -66 98q-6 -43 -33 -70.5t-67 -27.5q-61 0 -94 65t-33 183zM84 238q0 -94 24 -150.5t58 -56.5 q36 0 60 63.5t24 151.5v252l-53 -6q-42 -5 -77.5 -75.5t-35.5 -178.5zM111 1042q114 66 151 195l12 -61q-36 -93 -143 -150z" />
<glyph unicode="&#xe2;" horiz-adv-x="374" d="M39 238q0 130 45 209.5t109 84.5l57 7v120q0 118 -25.5 179t-68.5 61q-23 0 -44 -15t-32 -38l-6 49q26 43 84 43q137 0 137 -268v-490q0 -128 65 -162l-28 -28q-58 30 -66 98q-6 -43 -33 -70.5t-67 -27.5q-61 0 -94 65t-33 183zM61 1042q67 48 115 197q45 -141 115 -197 l-19 -16q-67 46 -96 121q-30 -77 -94 -121zM84 238q0 -94 24 -150.5t58 -56.5q36 0 60 63.5t24 151.5v252l-53 -6q-42 -5 -77.5 -75.5t-35.5 -178.5z" />
<glyph unicode="&#xe3;" horiz-adv-x="374" d="M39 238q0 130 45 209.5t109 84.5l57 7v120q0 118 -25.5 179t-68.5 61q-23 0 -44 -15t-32 -38l-6 49q26 43 84 43q137 0 137 -268v-490q0 -128 65 -162l-28 -28q-58 30 -66 98q-6 -43 -33 -70.5t-67 -27.5q-61 0 -94 65t-33 183zM70 1026l2 49q18 30 52.5 54t63.5 24 l17 -78q23 0 50 27t42 59l-2 -51q-12 -29 -48.5 -53.5t-66.5 -24.5l-16 78q-44 0 -94 -84zM84 238q0 -94 24 -150.5t58 -56.5q36 0 60 63.5t24 151.5v252l-53 -6q-42 -5 -77.5 -75.5t-35.5 -178.5z" />
<glyph unicode="&#xe4;" horiz-adv-x="374" d="M39 238q0 130 45 209.5t109 84.5l57 7v120q0 118 -25.5 179t-68.5 61q-23 0 -44 -15t-32 -38l-6 49q26 43 84 43q137 0 137 -268v-490q0 -128 65 -162l-28 -28q-58 30 -66 98q-6 -43 -33 -70.5t-67 -27.5q-61 0 -94 65t-33 183zM84 238q0 -94 24 -150.5t58 -56.5 q36 0 60 63.5t24 151.5v252l-53 -6q-42 -5 -77.5 -75.5t-35.5 -178.5zM84 1094q0 20 10.5 44.5t20.5 24.5t19 -24.5t9 -44.5t-9 -44t-19 -24t-20.5 24t-10.5 44zM195 1094q0 20 10 44.5t20 24.5t20.5 -24.5t10.5 -44.5t-10.5 -44t-20.5 -24t-20 24t-10 44z" />
<glyph unicode="&#xe5;" horiz-adv-x="374" d="M39 238q0 130 45 209.5t109 84.5l57 7v120q0 118 -25.5 179t-68.5 61q-23 0 -44 -15t-32 -38l-6 49q26 43 84 43q137 0 137 -268v-490q0 -128 65 -162l-28 -28q-58 30 -66 98q-6 -43 -33 -70.5t-67 -27.5q-61 0 -94 65t-33 183zM84 238q0 -94 24 -150.5t58 -56.5 q36 0 60 63.5t24 151.5v252l-53 -6q-42 -5 -77.5 -75.5t-35.5 -178.5zM94 1130q0 52 24 87.5t60 35.5q35 0 59.5 -36t24.5 -87q0 -50 -24.5 -86t-59.5 -36q-36 0 -60 36t-24 86zM125 1130q0 -39 15 -66.5t38 -27.5q20 0 35.5 28t15.5 66t-15.5 67.5t-35.5 29.5 q-23 0 -38 -29t-15 -68z" />
<glyph unicode="&#xe6;" horiz-adv-x="579" d="M39 240q0 128 44.5 200t111.5 78l55 4v137q0 118 -25.5 179t-68.5 61q-23 0 -44 -15t-32 -38l-6 49q26 43 84 43q49 0 84 -45t41 -127q10 82 43 127t77 45q38 0 65.5 -27.5t43 -76.5t22.5 -106.5t7 -125.5q0 -5 -2 -42.5t-2 -41.5l-35 -37h-207q-3 -119 10.5 -220 t44.5 -165.5t74 -64.5q54 0 80 45l-4 -53q-29 -33 -82 -33q-49 0 -86 46t-49 128q-4 -83 -36 -128.5t-81 -45.5q-61 0 -94 65.5t-33 184.5zM84 240q0 -95 24 -152t58 -57q36 0 60 63.5t24 151.5v235l-51 -4q-45 -5 -80 -68.5t-35 -168.5zM297 522h197q2 10 2 70 q0 121 -23 213t-70 92q-48 0 -77 -110.5t-29 -264.5z" />
<glyph unicode="&#xe7;" horiz-adv-x="331" d="M47 463q0 475 168 475q61 0 84 -41l-2 -49q-30 49 -80 49q-61 0 -94 -118.5t-33 -315.5t33 -314.5t96 -117.5q57 0 78 43l-4 -54q-27 -27 -70 -30l-6 -35q22 -9 38.5 -39.5t16.5 -85.5q0 -67 -24.5 -99t-54.5 -32q-25 0 -39 20l4 39q11 -24 32 -24q19 0 33.5 25t14.5 71 q0 96 -41 96q-11 0 -15 -2l8 70q-143 39 -143 469z" />
<glyph unicode="&#xe8;" horiz-adv-x="376" d="M47 463q0 475 154 475q38 0 65.5 -27.5t42.5 -76.5t22 -106.5t7 -125.5q0 -5 -2 -42.5t-2 -41.5l-35 -37h-207q-3 -120 10 -220.5t44 -165t75 -64.5q52 0 78 45l-4 -53q-29 -33 -80 -33q-168 0 -168 473zM88 1176l12 61q18 -64 58 -114t92 -81l-19 -16q-107 57 -143 150z M92 522h197q4 20 4 70q0 121 -22.5 213t-69.5 92q-48 0 -76 -107.5t-33 -267.5z" />
<glyph unicode="&#xe9;" horiz-adv-x="376" d="M47 463q0 475 154 475q38 0 65.5 -27.5t42.5 -76.5t22 -106.5t7 -125.5q0 -5 -2 -42.5t-2 -41.5l-35 -37h-207q-3 -120 10 -220.5t44 -165t75 -64.5q52 0 78 45l-4 -53q-29 -33 -80 -33q-168 0 -168 473zM92 522h197q4 20 4 70q0 121 -22.5 213t-69.5 92 q-48 0 -76 -107.5t-33 -267.5zM160 1042q114 66 151 195l13 -61q-38 -98 -144 -150z" />
<glyph unicode="&#xea;" horiz-adv-x="376" d="M47 463q0 475 154 475q38 0 65.5 -27.5t42.5 -76.5t22 -106.5t7 -125.5q0 -5 -2 -42.5t-2 -41.5l-35 -37h-207q-3 -120 10 -220.5t44 -165t75 -64.5q52 0 78 45l-4 -53q-29 -33 -80 -33q-168 0 -168 473zM88 1042q67 48 115 197q45 -142 114 -197l-18 -16q-67 46 -96 121 q-30 -77 -94 -121zM92 522h197q4 20 4 70q0 121 -22.5 213t-69.5 92q-48 0 -76 -107.5t-33 -267.5z" />
<glyph unicode="&#xeb;" horiz-adv-x="376" d="M47 463q0 475 154 475q38 0 65.5 -27.5t42.5 -76.5t22 -106.5t7 -125.5q0 -5 -2 -42.5t-2 -41.5l-35 -37h-207q-3 -120 10 -220.5t44 -165t75 -64.5q52 0 78 45l-4 -53q-29 -33 -80 -33q-168 0 -168 473zM92 522h197q4 20 4 70q0 121 -22.5 213t-69.5 92 q-48 0 -76 -107.5t-33 -267.5zM111 1094q0 20 10 44.5t20 24.5t19.5 -24.5t9.5 -44.5t-9.5 -44t-19.5 -24t-20 24t-10 44zM221 1094q0 20 10.5 44.5t20.5 24.5t20.5 -24.5t10.5 -44.5t-10.5 -44t-20.5 -24t-20.5 24t-10.5 44z" />
<glyph unicode="&#xec;" horiz-adv-x="202" d="M-2 1176l12 61q37 -129 152 -195l-21 -16q-107 57 -143 150zM78 0v928h45v-928h-45z" />
<glyph unicode="&#xed;" horiz-adv-x="202" d="M37 1042q114 66 151 195l13 -61q-38 -98 -144 -150zM78 0v928h45v-928h-45z" />
<glyph unicode="&#xee;" horiz-adv-x="202" d="M-16 1036q66 47 114 197q46 -144 115 -197l-18 -18q-71 56 -97 123q-27 -70 -94 -123zM78 0v928h45v-928h-45z" />
<glyph unicode="&#xef;" horiz-adv-x="202" d="M16 1094q0 20 9.5 44.5t19.5 24.5t20.5 -24.5t10.5 -44.5t-10.5 -44t-20.5 -24t-19.5 24t-9.5 44zM78 0v928h45v-928h-45zM125 1094q0 19 11.5 44t21.5 25t19 -24.5t9 -44.5t-9 -44t-19 -24t-21.5 24.5t-11.5 43.5z" />
<glyph unicode="&#xf0;" horiz-adv-x="403" d="M43 395q0 142 30.5 246t80.5 154q63 55 110 67l-47 264l-98 -18l-4 39l96 18l-25 142h45l23 -136l74 15l6 -39l-74 -14l68 -379q26 -178 26 -336q0 -428 -157 -428q-77 0 -115.5 109t-38.5 296zM88 395q0 -167 30.5 -265.5t78.5 -98.5q50 0 81 99t31 288q0 182 -39 399 q-65 -29 -90 -59q-92 -112 -92 -363z" />
<glyph unicode="&#xf1;" horiz-adv-x="397" d="M57 0v928h45v-70q7 32 33.5 56t67.5 24q69 0 103 -55.5t34 -153.5v-729h-45v727q0 84 -24 127t-68 43q-43 0 -72 -46.5t-29 -123.5v-727h-45zM82 1026l2 49q18 30 53 54t64 24l16 -78q23 0 50 27t42 59l-2 -51q-12 -29 -49 -53.5t-68 -24.5l-14 78q-44 0 -94 -84z" />
<glyph unicode="&#xf2;" horiz-adv-x="413" d="M47 463q0 475 160 475q162 0 162 -475q0 -473 -162 -473q-160 0 -160 473zM86 1176l14 61q18 -64 58 -114t92 -81l-19 -16q-107 53 -145 150zM92 463q0 -195 30.5 -313.5t84.5 -118.5q55 0 86 119t31 313q0 193 -31.5 313.5t-85.5 120.5t-84.5 -120t-30.5 -314z" />
<glyph unicode="&#xf3;" horiz-adv-x="413" d="M47 463q0 475 160 475q162 0 162 -475q0 -473 -162 -473q-160 0 -160 473zM92 463q0 -195 30.5 -313.5t84.5 -118.5q55 0 86 119t31 313q0 193 -31.5 313.5t-85.5 120.5t-84.5 -120t-30.5 -314zM158 1042q114 66 151 195l13 -61q-38 -98 -144 -150z" />
<glyph unicode="&#xf4;" horiz-adv-x="413" d="M47 463q0 475 160 475q162 0 162 -475q0 -473 -162 -473q-160 0 -160 473zM92 463q0 -195 30.5 -313.5t84.5 -118.5q55 0 86 119t31 313q0 193 -31.5 313.5t-85.5 120.5t-84.5 -120t-30.5 -314zM92 1042q67 48 115 197q45 -141 115 -197l-19 -16q-67 46 -96 121 q-30 -77 -94 -121z" />
<glyph unicode="&#xf5;" horiz-adv-x="413" d="M47 463q0 475 160 475q162 0 162 -475q0 -473 -162 -473q-160 0 -160 473zM92 463q0 -195 30.5 -313.5t84.5 -118.5q55 0 86 119t31 313q0 193 -31.5 313.5t-85.5 120.5t-84.5 -120t-30.5 -314zM94 1026v49q17 29 54 53.5t63 24.5l18 -78q23 0 50.5 27t42.5 59l-3 -51 q-12 -29 -48.5 -53.5t-67.5 -24.5l-17 78q-42 0 -92 -84z" />
<glyph unicode="&#xf6;" horiz-adv-x="413" d="M47 463q0 475 160 475q162 0 162 -475q0 -473 -162 -473q-160 0 -160 473zM92 463q0 -195 30.5 -313.5t84.5 -118.5q55 0 86 119t31 313q0 193 -31.5 313.5t-85.5 120.5t-84.5 -120t-30.5 -314zM121 1094q0 20 9.5 44.5t19.5 24.5t19 -24.5t9 -44.5t-9 -44t-19 -24 t-19.5 24t-9.5 44zM229 1094q0 20 10.5 44.5t20.5 24.5t20.5 -24.5t10.5 -44.5t-10.5 -44t-20.5 -24t-20.5 24t-10.5 44z" />
<glyph unicode="&#xf7;" horiz-adv-x="378" d="M41 547v41h299v-41h-299zM156 373q0 24 11 53t23 29q11 0 23 -30t12 -52q0 -23 -12.5 -51.5t-22.5 -28.5q-12 0 -23 28t-11 52zM156 764q0 24 11 53t23 29q11 0 23 -30t12 -52q0 -23 -12.5 -51.5t-22.5 -28.5q-12 0 -23 28t-11 52z" />
<glyph unicode="&#xf8;" horiz-adv-x="413" d="M47 463q0 475 160 475q53 0 88 -53l18 73l37 -10q-6 -30 -8 -37q-16 -63 -20 -75q47 -125 47 -373q0 -473 -162 -473q-52 0 -90 53l-19 -74l-37 11l31 116q-45 120 -45 367zM92 463q0 -152 23 -277l164 635q-27 76 -72 76q-54 0 -84.5 -120t-30.5 -314zM135 111 q27 -80 72 -80q55 0 86 119t31 313q0 169 -25 285q-1 1 -11.5 -42t-31.5 -126t-39 -150z" />
<glyph unicode="&#xf9;" horiz-adv-x="397" d="M57 199v729h45v-727q0 -84 24.5 -127t68.5 -43q43 0 71.5 46.5t28.5 123.5v727h45v-928h-45v61q-7 -27 -34 -49t-66 -22q-70 0 -104 55.5t-34 153.5zM63 1176l15 61q37 -129 149 -195l-18 -16q-109 53 -146 150z" />
<glyph unicode="&#xfa;" horiz-adv-x="397" d="M57 199v729h45v-727q0 -84 24.5 -127t68.5 -43q43 0 71.5 46.5t28.5 123.5v727h45v-928h-45v61q-7 -27 -34 -49t-66 -22q-70 0 -104 55.5t-34 153.5zM172 1042q115 66 152 195l12 -61q-38 -99 -143 -150z" />
<glyph unicode="&#xfb;" horiz-adv-x="397" d="M57 199v729h45v-727q0 -84 24.5 -127t68.5 -43q43 0 71.5 46.5t28.5 123.5v727h45v-928h-45v61q-7 -27 -34 -49t-66 -22q-70 0 -104 55.5t-34 153.5zM86 1042q69 53 115 197q46 -144 112 -197l-16 -16q-67 46 -96 121q-29 -74 -97 -121z" />
<glyph unicode="&#xfc;" horiz-adv-x="397" d="M57 199v729h45v-727q0 -84 24.5 -127t68.5 -43q43 0 71.5 46.5t28.5 123.5v727h45v-928h-45v61q-7 -27 -34 -49t-66 -22q-70 0 -104 55.5t-34 153.5zM115 1094q0 20 9 44.5t19 24.5t19.5 -24.5t9.5 -44.5t-9.5 -44t-19.5 -24t-19 24t-9 44zM223 1094q0 20 10.5 44.5 t20.5 24.5t20.5 -24.5t10.5 -44.5t-10.5 -44t-20.5 -24t-20.5 24t-10.5 44z" />
<glyph unicode="&#xfd;" horiz-adv-x="405" d="M10 -330q39 42 64.5 84.5t56 136.5t53.5 234l-149 803h45l86 -461q24 -122 37 -231h4q7 40 19.5 115.5t19.5 115.5l82 461h43l-146 -803q-38 -212 -80.5 -311.5t-107.5 -169.5zM172 1042q115 66 152 195l12 -61q-36 -93 -143 -150z" />
<glyph unicode="&#xfe;" horiz-adv-x="409" d="M66 -365v1672h45v-424q34 55 86 55q165 0 165 -469q0 -228 -38 -353.5t-129 -125.5q-58 0 -84 57v-412h-45zM111 115q11 -35 35 -59.5t49 -24.5q61 0 91.5 119t30.5 319q0 192 -32 310t-90 118q-27 0 -49.5 -28t-34.5 -64v-690z" />
<glyph unicode="&#xff;" horiz-adv-x="405" d="M10 -330q39 42 64.5 84.5t56 136.5t53.5 234l-149 803h45l86 -461q24 -122 37 -231h4q7 40 19.5 115.5t19.5 115.5l82 461h43l-146 -803q-38 -212 -80.5 -311.5t-107.5 -169.5zM121 1087q0 20 9.5 45t19.5 25t19 -25t9 -45t-9 -43.5t-19 -23.5t-19.5 23.5t-9.5 43.5z M229 1087q0 20 10.5 45t20.5 25t20.5 -25t10.5 -45t-10.5 -43.5t-20.5 -23.5t-20.5 23.5t-10.5 43.5z" />
<glyph unicode="&#x152;" horiz-adv-x="645" d="M53 653q0 664 195 664q69 0 110 -68v58h254v-43h-206v-584h178v-43h-178v-594h229v-43h-277v57q-40 -67 -110 -67q-195 0 -195 663zM100 653q0 -276 38.5 -448t109.5 -172q68 0 110 100v1041q-42 100 -110 100q-71 0 -109.5 -172.5t-38.5 -448.5z" />
<glyph unicode="&#x153;" horiz-adv-x="653" d="M47 463q0 475 160 475q57 0 92.5 -59t46.5 -152q11 94 44 152.5t87 58.5q37 0 64.5 -28t42.5 -76.5t22.5 -106t7.5 -125.5q0 -5 -2 -42.5t-2 -41.5l-35 -37h-206q-5 -187 28.5 -318.5t100.5 -131.5q51 0 77 45l-4 -53q-29 -33 -79 -33q-58 0 -95.5 58t-52.5 151 q-13 -93 -47.5 -151t-89.5 -58q-160 0 -160 473zM92 463q0 -195 30.5 -313.5t84.5 -118.5q55 0 86 119t31 313q0 193 -31.5 313.5t-85.5 120.5t-84.5 -120t-30.5 -314zM369 522h196q4 20 4 70q0 121 -22.5 213t-69.5 92q-48 0 -75.5 -107t-32.5 -268z" />
<glyph unicode="&#x178;" horiz-adv-x="399" d="M25 1307h47l88 -428q8 -41 21 -115.5t18 -99.5h4q6 34 19 105.5t20 109.5l88 428h45l-152 -734v-573h-47v573zM103 1475q0 24 11.5 53t23.5 29t23 -29t11 -53t-11 -52t-23 -28t-23.5 28t-11.5 52zM232 1475q0 24 12.5 53t24.5 29q11 0 22.5 -30t11.5 -52q0 -24 -12 -52 t-22 -28q-12 0 -24.5 28t-12.5 52z" />
<glyph unicode="&#x2c6;" horiz-adv-x="348" d="M39 1006q85 64 135 231q21 -69 56 -133.5t77 -97.5l-20 -21q-81 57 -113 143q-29 -84 -113 -143z" />
<glyph unicode="&#x2dc;" horiz-adv-x="348" d="M39 985l2 59q19 35 61.5 63t75.5 28l21 -91q27 0 58 31t50 70l-2 -60q-15 -35 -57.5 -63.5t-79.5 -28.5l-18 92q-27 0 -58 -31t-53 -69z" />
<glyph unicode="&#x2000;" horiz-adv-x="831" />
<glyph unicode="&#x2001;" horiz-adv-x="1663" />
<glyph unicode="&#x2002;" horiz-adv-x="831" />
<glyph unicode="&#x2003;" horiz-adv-x="1663" />
<glyph unicode="&#x2004;" horiz-adv-x="554" />
<glyph unicode="&#x2005;" horiz-adv-x="415" />
<glyph unicode="&#x2006;" horiz-adv-x="277" />
<glyph unicode="&#x2007;" horiz-adv-x="277" />
<glyph unicode="&#x2008;" horiz-adv-x="207" />
<glyph unicode="&#x2009;" horiz-adv-x="332" />
<glyph unicode="&#x200a;" horiz-adv-x="92" />
<glyph unicode="&#x2010;" horiz-adv-x="280" d="M41 547v41h199v-41h-199z" />
<glyph unicode="&#x2011;" horiz-adv-x="280" d="M41 547v41h199v-41h-199z" />
<glyph unicode="&#x2012;" horiz-adv-x="280" d="M41 547v41h199v-41h-199z" />
<glyph unicode="&#x2013;" horiz-adv-x="372" d="M41 547v41h293v-41h-293z" />
<glyph unicode="&#x2014;" horiz-adv-x="481" d="M41 547v41h399v-41h-399z" />
<glyph unicode="&#x2018;" horiz-adv-x="196" d="M59 1053q0 56 20.5 128t59.5 134l33 -2q-24 -37 -41 -88t-18 -92q9 -9 18.5 -32.5t9.5 -47.5t-14.5 -61.5t-26.5 -37.5q-16 0 -28.5 35.5t-12.5 63.5z" />
<glyph unicode="&#x2019;" horiz-adv-x="196" d="M27 958q24 37 41 88.5t18 92.5q-9 9 -18 32.5t-9 47.5q0 30 12.5 64t28.5 34q12 0 26.5 -35.5t14.5 -62.5q0 -57 -21 -130.5t-61 -132.5z" />
<glyph unicode="&#x201a;" horiz-adv-x="196" d="M27 -178q24 37 41 88t18 92q-9 9 -18 32.5t-9 47.5q0 30 12.5 64t28.5 34q12 0 26.5 -35.5t14.5 -62.5q0 -56 -21 -128t-61 -134z" />
<glyph unicode="&#x201c;" horiz-adv-x="352" d="M59 1053q0 56 20.5 128t59.5 134l33 -2q-24 -37 -41 -88t-18 -92q9 -9 18.5 -32.5t9.5 -47.5t-14.5 -61.5t-26.5 -37.5q-16 0 -28.5 35.5t-12.5 63.5zM213 1053q0 56 20.5 128t59.5 134l35 -2q-24 -39 -42.5 -89.5t-19.5 -90.5q9 -9 19 -32.5t10 -47.5t-14.5 -61.5 t-26.5 -37.5q-16 0 -28.5 35.5t-12.5 63.5z" />
<glyph unicode="&#x201d;" horiz-adv-x="352" d="M27 958q24 37 41 88.5t18 92.5q-9 9 -18 32.5t-9 47.5q0 30 12.5 64t28.5 34q12 0 26.5 -35.5t14.5 -62.5q0 -57 -21 -130.5t-61 -132.5zM180 958q24 38 42.5 89.5t19.5 91.5q-11 8 -20 31.5t-9 48.5q0 30 12.5 64t28.5 34q12 0 26.5 -35.5t14.5 -62.5q0 -57 -21 -130.5 t-61 -132.5z" />
<glyph unicode="&#x201e;" horiz-adv-x="352" d="M27 -178q24 37 41 88t18 92q-9 9 -18 32.5t-9 47.5q0 30 12.5 64t28.5 34q12 0 26.5 -35.5t14.5 -62.5q0 -56 -21 -128t-61 -134zM180 -178q24 39 42.5 89.5t19.5 90.5q-11 8 -20 31.5t-9 48.5q0 30 12.5 64t28.5 34q12 0 26.5 -35.5t14.5 -62.5q0 -56 -21 -128t-61 -134 z" />
<glyph unicode="&#x2022;" horiz-adv-x="237" d="M43 567q0 228 76 228t76 -228q0 -227 -76 -227t-76 227z" />
<glyph unicode="&#x2026;" horiz-adv-x="520" d="M57 84q0 26 13.5 61t25.5 35q16 0 28.5 -34t12.5 -62t-12.5 -61t-28.5 -33q-12 0 -25.5 34t-13.5 60zM219 84q0 26 13.5 61t25.5 35q16 0 28.5 -34t12.5 -62t-12.5 -61t-28.5 -33q-12 0 -25.5 34t-13.5 60zM381 84q0 26 13.5 61t25.5 35q16 0 28.5 -34t12.5 -62 t-12.5 -61t-28.5 -33q-12 0 -25.5 34t-13.5 60z" />
<glyph unicode="&#x202f;" horiz-adv-x="332" />
<glyph unicode="&#x2039;" horiz-adv-x="251" d="M12 567q57 50 109.5 130t77.5 153l26 -21q-22 -77 -65 -149.5t-86 -112.5q43 -40 86 -112.5t65 -149.5l-26 -20q-25 73 -77 152.5t-110 129.5z" />
<glyph unicode="&#x203a;" horiz-adv-x="251" d="M27 305q23 78 65 150.5t86 111.5q-44 39 -86 111.5t-65 150.5l26 21q26 -73 78 -154t107 -129q-55 -48 -107 -128.5t-78 -153.5z" />
<glyph unicode="&#x205f;" horiz-adv-x="415" />
<glyph unicode="&#x2122;" horiz-adv-x="391" d="M14 1282v25h123v-25h-47v-354h-31v354h-45zM164 928l10 379h41l43 -357l41 357h41l10 -379h-24l-9 344l-38 -344h-41l-37 344l-11 -344h-26z" />
<glyph unicode="&#x25fc;" horiz-adv-x="931" d="M0 0v932h932v-932h-932z" />
</font>
</defs>
</svg>
